# xmcd
#
# Track frame offsets: 
#        150
#        12875
#        22805
#        31909
#        42394
#        54645
#        64781
#        74683
#        84377
#        98021
#        113152
#        127011
#        140161
#        150397
#        164068
#        172951
#        184251
#        195134
#        210735
#        220673
#        230571
#        242284
#        254225
#        264122
#        275645
#        286345
#        296175
#        307727
#        320308
#        330550
#        343864
#
# Disc length: 4702 seconds
#
# Revision: 0
# Processed by: cddbd v1.5.2PL0 Copyright (c) Steve Scherf et al.
# Submitted via: ExactAudioCopyFreeDBPlugin 1.0
#
DISCID=c6125c1f
DTITLE=Cline (Patsy) - For Always
DYEAR=2013
DGENRE=Country
TTITLE0=I Fall To Pieces
TTITLE1=Heartaches
TTITLE2=Walking After Midnight (1961 Version))
TTITLE3=San Antonio Rose
TTITLE4=Crazy
TTITLE5=I Love You So Much It Hurts
TTITLE6=Foolin'round
TTITLE7=True Love
TTITLE8=She 's Got You
TTITLE9=The Wayward Wind
TTITLE10=You Belong To Me
TTITLE11=Imagine That
TTITLE12=Who Can I Count On
TTITLE13=So Wrong
TTITLE14=You Were Only Fooling (While I Was Falling In Love)
TTITLE15=Half As Much
TTITLE16=South Of The Border (Down Mexico Way)
TTITLE17=Why Can't He Be You
TTITLE18=Strange
TTITLE19=Seven Lonely Days
TTITLE20=A Poor Man'roses (Or A Rich Man's Gold) (1961 Version)
TTITLE21=You're Stronger Than Me
TTITLE22=Lovin' In Vain
TTITLE23=Lonely Street
TTITLE24=Your Cheatin' Heart
TTITLE25=Have You Ever Been Lonely (Have You Ever Been Blue)
TTITLE26=When I Get Thru With You (You 'll Love Me Too)
TTITLE27=You Made Me Love You (I Didn't Want To Do It)
TTITLE28=How Can I Face Tomorrow
TTITLE29=I Can't Help It (If I'm Still In Love With You)
TTITLE30=Anytime
EXTD=
EXTT0=
EXTT1=
EXTT2=
EXTT3=
EXTT4=
EXTT5=
EXTT6=
EXTT7=
EXTT8=
EXTT9=
EXTT10=
EXTT11=
EXTT12=
EXTT13=
EXTT14=
EXTT15=
EXTT16=
EXTT17=
EXTT18=
EXTT19=
EXTT20=
EXTT21=
EXTT22=
EXTT23=
EXTT24=
EXTT25=
EXTT26=
EXTT27=
EXTT28=
EXTT29=
EXTT30=
PLAYORDER=
